<svg version="1.1" id="Layer_1" xmlns="http://www.w3.org/2000/svg" xmlns:xlink="http://www.w3.org/1999/xlink" x="0px" y="0px"
	 width="100%" viewBox="0 0 1280 583" enable-background="new 0 0 1280 583" xml:space="preserve">
<path fill="#000000" opacity="1.000000" stroke="none" 
	d="
M772.000000,584.000000 
	C756.645752,584.000000 741.291565,584.000000 725.136963,583.719177 
	C724.664795,583.062439 724.928406,582.457825 725.330750,582.344238 
	C735.269226,579.536987 740.897827,572.771729 741.976746,562.770813 
	C742.863220,554.553894 743.683472,546.099426 742.705688,537.970032 
	C741.487183,527.838745 735.939819,519.899536 725.266296,517.178833 
	C710.119812,513.317932 694.713135,515.567627 679.000000,514.951965 
	C679.000000,538.403198 679.000000,561.201599 679.000000,584.000000 
	C656.645752,584.000000 634.291565,584.000000 611.468750,583.534363 
	C611.000244,578.811218 611.000244,574.553711 611.000244,569.835327 
	C598.772461,569.835327 587.237549,569.835327 575.190491,569.835327 
	C585.538269,558.276001 594.741638,546.522034 605.526855,536.464294 
	C612.729248,529.747742 610.476929,522.681824 610.901489,515.259827 
	C591.987305,515.259827 573.736877,515.259827 555.330811,515.259827 
	C555.330811,520.234497 555.330811,524.944214 555.330811,530.133667 
	C566.838257,530.133667 578.021179,530.133667 589.778870,530.133667 
	C588.906006,531.714478 588.536194,532.838684 587.807495,533.634216 
	C579.663757,542.524780 571.592407,551.487549 563.234802,560.174255 
	C557.828003,565.794006 553.169250,571.465759 554.962891,580.011780 
	C555.230652,581.287598 555.000000,582.667969 555.000000,584.000000 
	C545.645752,584.000000 536.291565,584.000000 526.468872,583.531372 
	C526.000366,560.481384 526.000366,537.900024 526.000366,515.414185 
	C519.924988,515.414185 514.542969,515.414185 508.676636,515.414185 
	C508.676636,530.319153 508.676636,544.813110 508.676636,560.734192 
	C499.548035,545.427490 491.205994,531.397949 482.787842,517.414307 
	C482.200867,516.439270 481.068939,515.144104 480.157013,515.116821 
	C473.561920,514.919861 466.958252,515.011108 460.564514,515.011108 
	C460.265106,515.936035 460.080963,516.239990 460.080475,516.544189 
	C460.044342,539.029480 460.022766,561.514709 460.000000,584.000000 
	C450.979095,584.000000 441.958221,584.000000 432.356201,583.652100 
	C431.287018,582.457581 430.669464,581.659729 430.329834,580.757263 
	C422.542236,560.062683 414.704102,539.386230 407.115570,518.618652 
	C406.067444,515.750244 404.791168,514.774658 401.869171,514.942810 
	C397.891632,515.171570 393.876068,514.807129 389.909149,515.114136 
	C388.638336,515.212524 386.796387,516.371155 386.359833,517.490784 
	C382.404724,527.634888 378.777161,537.906067 374.908600,548.084900 
	C370.347748,560.085266 365.642578,572.030701 361.000000,584.000000 
	C351.979095,584.000000 342.958221,584.000000 333.468811,583.534363 
	C333.000305,578.811646 333.000305,574.554504 333.000305,569.746094 
	C319.595764,569.746094 306.884888,569.746094 293.806824,569.746094 
	C293.806824,551.262512 293.806824,533.343994 293.806824,515.320923 
	C287.704163,515.320923 281.989136,515.320923 276.000000,515.320923 
	C276.000000,538.428040 276.000000,561.214050 276.000000,584.000000 
	C261.312439,584.000000 246.624878,584.000000 231.131607,583.753540 
	C233.911606,580.553406 238.247726,578.159546 240.945374,574.543335 
	C249.797775,562.676575 249.518921,549.238708 246.221497,535.554382 
	C243.639191,524.837830 236.965988,518.594482 226.207077,515.810608 
	C217.848389,513.647766 209.581604,513.540588 201.374619,515.160339 
	C190.486038,517.309387 182.158890,522.921692 178.969131,534.446228 
	C176.274963,544.180237 176.005859,553.980957 178.466644,563.644348 
	C180.118927,570.132812 183.296265,576.067688 189.343719,579.913818 
	C191.065582,581.008911 192.457031,582.623596 194.000000,584.000000 
	C178.979111,584.000000 163.958206,584.000000 148.458801,583.632324 
	C143.783905,575.641846 139.587524,568.019043 135.355560,560.331604 
	C141.665833,557.653625 145.205780,552.713684 146.641129,546.626648 
	C147.536346,542.830261 147.107986,538.673584 146.962265,534.690063 
	C146.685532,527.125427 144.022873,520.880188 136.436371,517.888611 
	C133.586288,516.764709 130.616806,515.243896 127.673103,515.177612 
	C114.581001,514.882996 101.478516,515.049744 88.000000,515.049744 
	C88.000000,538.414673 88.000000,561.207336 88.000000,584.000000 
	C64.979103,584.000000 41.958210,584.000000 18.468887,583.531616 
	C18.000458,577.137390 18.000458,571.211487 18.000458,565.000061 
	C25.172070,565.000061 31.654215,565.225159 38.114655,564.946655 
	C47.490612,564.542603 54.977402,560.970276 58.163746,551.345886 
	C58.869690,549.213501 59.339966,546.968079 59.624416,544.737183 
	C60.895153,534.770752 58.489491,519.278625 45.108768,516.607666 
	C41.594936,515.906250 38.023796,515.135010 34.467003,515.072021 
	C23.314404,514.874634 12.156096,514.999756 1.000000,515.000000 
	C1.000000,343.730408 1.000000,172.460800 1.000000,1.000000 
	C221.354187,1.000000 441.708435,1.000000 662.712952,1.396073 
	C662.521362,2.190971 661.718018,2.774334 660.831543,2.959161 
	C654.289185,4.323188 647.651062,5.302175 641.191833,6.976226 
	C623.786194,11.487230 608.394836,20.127487 594.954163,31.839006 
	C588.429688,37.524082 581.494263,43.088715 579.400330,52.781090 
	C576.832947,64.664993 587.751526,80.318192 600.293152,80.132759 
	C628.786865,79.711472 657.291565,79.928352 685.790527,80.092712 
	C689.287964,80.112885 692.978882,80.893509 696.232300,82.192772 
	C704.489929,85.490463 709.616272,97.563126 707.782288,107.393784 
	C705.622986,118.967827 700.200195,127.420395 685.575745,127.219559 
	C641.084229,126.608589 596.578857,126.968254 552.078979,127.015755 
	C538.159546,127.030609 526.896912,136.363434 522.083801,147.460251 
	C515.923218,161.663696 518.431580,175.195129 527.759705,187.036133 
	C533.264099,194.023300 540.943970,198.130325 550.449890,198.049271 
	C569.781799,197.884430 589.116150,197.959091 608.449280,198.023712 
	C614.676941,198.044540 619.609131,200.494598 623.377197,205.749023 
	C628.392212,212.742432 629.943726,220.399033 627.853821,228.469406 
	C625.718628,236.714569 620.052185,245.416595 608.261353,245.111816 
	C591.272705,244.672653 574.244019,245.504120 557.271545,244.820984 
	C546.072754,244.370224 537.753540,248.303314 530.135132,256.184845 
	C513.243958,273.659424 521.392334,302.525269 543.191650,309.919403 
	C549.118286,311.929718 555.685791,312.803711 561.973022,312.868958 
	C590.969788,313.169922 619.971741,313.057770 648.971313,312.953339 
	C654.855469,312.932159 659.164246,315.272125 661.948547,320.283478 
	C663.661255,323.366425 665.516296,326.548981 666.328003,329.922485 
	C669.575806,343.421326 662.465088,360.830658 643.606750,360.116058 
	C628.461853,359.542206 613.277832,359.999817 598.111206,360.000061 
	C584.833069,360.000275 575.966553,369.223389 577.110901,382.362427 
	C577.464172,386.417847 578.114319,390.761322 582.564270,393.112061 
	C594.259521,399.290222 605.549438,406.352905 617.601807,411.711731 
	C638.935669,421.197296 661.676208,426.344452 684.861450,427.685028 
	C700.798157,428.606506 717.007568,427.519409 732.903625,425.677948 
	C748.935364,423.820801 764.503601,419.124908 779.544739,413.005829 
	C803.736633,403.164001 825.821167,389.918671 844.629944,371.711761 
	C852.999756,363.609711 860.901794,354.949432 868.355530,345.992706 
	C881.075073,330.708435 891.312500,313.730408 897.883972,294.963928 
	C902.987305,280.390015 907.474792,265.462860 910.512817,250.346405 
	C912.995483,237.993179 913.361938,225.144196 913.830200,212.484055 
	C914.095276,205.319458 912.583740,198.099411 912.030334,190.892197 
	C910.668152,173.152237 906.062744,156.173767 899.985718,139.558929 
	C890.178894,112.746475 875.392639,88.833313 855.576782,68.437447 
	C844.846741,57.393330 833.054199,46.986942 820.350159,38.335018 
	C791.147644,18.447111 758.842590,6.050231 723.326782,2.916257 
	C722.501221,2.843407 721.773438,1.663516 721.000000,0.999996 
	C907.591614,1.000000 1094.183228,1.000000 1281.000000,1.000000 
	C1281.000000,176.354156 1281.000000,351.708435 1280.760742,527.878052 
	C1276.913940,521.200134 1271.260986,515.943909 1262.865234,515.143616 
	C1255.744629,514.464844 1248.492798,514.694641 1241.326782,515.063660 
	C1228.551147,515.721497 1223.595215,519.923950 1220.900757,532.407227 
	C1217.651611,547.460083 1226.039062,557.174438 1240.376831,557.067444 
	C1247.120239,557.017090 1253.888550,557.496826 1260.600708,558.178650 
	C1262.148804,558.335938 1264.559326,560.172974 1264.725952,561.473755 
	C1265.004272,563.645325 1264.336914,566.409119 1263.040039,568.164551 
	C1261.978760,569.601196 1259.490112,570.208435 1257.514038,570.706421 
	C1246.851440,573.393494 1239.938110,570.099670 1237.236816,561.231812 
	C1231.616943,561.231812 1226.005249,561.231812 1220.117676,561.231812 
	C1220.713135,570.041931 1222.179077,578.004639 1231.138428,582.123291 
	C1231.613037,582.341370 1231.721313,583.356140 1232.000000,584.000000 
	C1218.979126,584.000000 1205.958130,584.000000 1192.468262,583.534363 
	C1191.999390,578.812866 1191.999390,574.556946 1191.999390,569.754517 
	C1178.601562,569.754517 1165.894165,569.754517 1152.827393,569.754517 
	C1152.827393,551.280579 1152.827393,533.367310 1152.827393,515.338135 
	C1146.737549,515.338135 1141.029785,515.338135 1135.000000,515.338135 
	C1135.000000,538.450317 1135.000000,561.225159 1135.000000,584.000000 
	C1125.979126,584.000000 1116.958130,584.000000 1107.456299,583.618286 
	C1099.263184,562.644470 1091.505493,542.069153 1083.873657,521.447327 
	C1082.184204,516.882080 1079.946899,513.824219 1074.355225,514.920410 
	C1071.948730,515.392212 1069.349243,515.216309 1066.879395,514.947693 
	C1063.350708,514.563904 1061.913086,516.318604 1060.941284,519.398376 
	C1059.470093,524.060486 1057.657593,528.616150 1055.949585,533.201965 
	C1049.641968,550.137939 1043.317993,567.067871 1037.000000,584.000000 
	C1025.312500,584.000000 1013.624878,584.000000 1001.468018,583.531372 
	C1000.998779,565.483765 1000.998779,547.904846 1000.998779,529.759033 
	C1008.391846,529.759033 1015.118530,529.759033 1021.697754,529.759033 
	C1021.697754,524.584595 1021.697754,519.988831 1021.697754,515.356689 
	C1001.691772,515.356689 981.990234,515.356689 962.250977,515.356689 
	C962.250977,520.310791 962.250977,524.905090 962.250977,530.067993 
	C969.206299,530.067993 975.927002,530.067993 983.000000,530.067993 
	C983.000000,548.426941 983.000000,566.213440 983.000000,584.000000 
	C966.645752,584.000000 950.291565,584.000000 933.468628,583.531372 
	C933.000000,560.510681 933.000000,537.958618 933.000000,515.360840 
	C927.023376,515.360840 921.650085,515.360840 916.000000,515.360840 
	C916.000000,538.480896 916.000000,561.240417 916.000000,584.000000 
	C901.979126,584.000000 887.958191,584.000000 873.130493,583.752808 
	C873.817444,582.549133 875.255005,581.487183 876.814941,580.654846 
	C882.620850,577.557007 886.056091,572.514526 886.821716,566.273010 
	C887.540100,560.416016 886.975586,554.401733 886.975586,548.339844 
	C876.075623,548.339844 865.698792,548.339844 855.411255,548.339844 
	C855.411255,553.070557 855.411255,557.454712 855.411255,562.123901 
	C860.110657,562.123901 864.399475,562.123901 869.085510,562.123901 
	C868.744080,563.396973 868.753113,564.479797 868.229919,565.142273 
	C862.688110,572.159973 844.133850,574.705750 838.019653,562.729919 
	C836.572327,559.895081 835.693848,556.600830 835.309143,553.426392 
	C834.414978,546.046692 835.290649,538.573669 840.602356,533.151428 
	C849.089050,524.488159 866.178650,528.546509 870.718506,539.746216 
	C876.014465,539.746216 881.292786,539.746216 886.532532,539.746216 
	C887.624146,531.474182 883.674316,523.904297 876.480713,519.846924 
	C865.178162,513.472046 853.259460,512.904968 840.837036,515.538269 
	C831.507568,517.515869 824.761414,522.433105 820.923096,531.269104 
	C816.950867,540.413452 817.349731,550.059570 818.416748,559.501709 
	C819.549255,569.523376 824.125977,577.871643 834.130737,582.120789 
	C834.601624,582.320740 834.718384,583.354492 835.000000,584.000000 
	C819.979126,584.000000 804.958191,584.000000 789.468506,583.531372 
	C788.999756,560.510681 788.999756,537.958679 788.999756,515.360901 
	C783.023560,515.360901 777.650391,515.360901 772.000000,515.360901 
	C772.000000,538.480957 772.000000,561.240479 772.000000,584.000000 
M430.894226,236.495926 
	C433.663940,242.845047 438.474945,245.208344 445.390656,245.096436 
	C463.183167,244.808502 480.986084,244.830276 498.778992,245.106613 
	C503.916962,245.186417 507.390564,243.157333 509.917236,239.183670 
	C515.500793,230.402542 516.365540,221.025101 513.100159,211.159622 
	C509.934570,201.595703 505.245239,197.999817 495.544312,197.999664 
	C478.745117,197.999390 461.945892,197.990204 445.146698,198.005325 
	C439.491913,198.010422 434.936951,200.139435 431.978851,205.128738 
	C426.066895,215.100052 425.940521,225.381638 430.894226,236.495926 
M534.491821,316.000305 
	C520.676575,316.000488 506.861267,315.973175 493.046143,316.013214 
	C486.732239,316.031494 481.715240,318.664520 479.285004,324.570099 
	C477.577240,328.720032 476.409088,333.211029 475.780273,337.660004 
	C474.643066,345.705780 476.658386,353.162445 481.993835,359.399872 
	C484.276978,362.068939 487.377167,363.126465 491.158844,363.086731 
	C509.466156,362.894287 527.781982,362.744385 546.083191,363.131042 
	C552.994873,363.277100 557.080505,359.982635 559.695984,354.503082 
	C563.560425,346.406799 564.078674,337.948273 561.133972,329.296295 
	C557.875122,319.721008 552.981445,316.004303 542.977234,316.000488 
	C540.480530,315.999542 537.983765,316.000336 534.491821,316.000305 
M529.548340,79.006668 
	C527.060181,74.410957 522.980774,72.105080 517.977356,72.062775 
	C499.654327,71.907845 481.322571,71.749680 463.010712,72.228874 
	C459.616577,72.317696 455.338379,74.545998 453.124390,77.179321 
	C446.028564,85.618965 445.558594,95.792969 448.150116,106.047890 
	C450.336334,114.699028 456.466888,118.999840 465.378754,118.999847 
	C483.203369,118.999878 501.033844,119.232651 518.847229,118.785439 
	C522.056763,118.704865 526.051208,116.574272 528.213501,114.103752 
	C535.833496,105.397209 536.297058,90.683479 529.548340,79.006668 
M413.103912,234.496002 
	C419.143066,224.463348 418.423706,214.691406 410.884796,205.983963 
	C404.779755,198.932602 396.649963,196.514404 387.443665,199.048691 
	C376.332733,202.107269 371.713654,208.322968 370.183929,218.148422 
	C368.322418,230.105057 373.170990,237.827072 383.142761,242.912506 
	C391.811340,247.333344 405.288849,246.407150 413.103912,234.496002 
M459.552917,325.041077 
	C458.490082,323.985077 457.482330,322.865997 456.355743,321.883057 
	C446.619354,313.388306 431.879578,314.828156 424.110748,323.614838 
	C417.455902,331.141541 415.523682,340.257690 420.001434,349.675781 
	C424.397034,358.920929 431.774139,363.401001 442.419373,363.140076 
	C451.991974,362.905426 458.606354,358.211182 462.570618,350.444458 
	C466.842987,342.074188 466.112030,333.337433 459.552917,325.041077 
M403.219421,117.682190 
	C408.881622,117.906891 414.939148,119.531555 420.124481,118.067421 
	C431.216309,114.935516 436.276062,105.384140 436.199463,94.459259 
	C436.143982,86.546394 430.616425,77.893936 422.788696,74.388100 
	C414.054352,70.476219 403.687073,72.480385 397.209198,78.187195 
	C384.992310,88.949966 386.928009,109.982849 403.219421,117.682190 
z"/>
<path fill="#E03838" opacity="1.000000" stroke="none" 
	d="
M720.531372,0.999996 
	C721.773438,1.663516 722.501221,2.843407 723.326782,2.916257 
	C758.842590,6.050231 791.147644,18.447111 820.350159,38.335018 
	C833.054199,46.986942 844.846741,57.393330 855.576782,68.437447 
	C875.392639,88.833313 890.178894,112.746475 899.985718,139.558929 
	C906.062744,156.173767 910.668152,173.152237 912.030334,190.892197 
	C912.583740,198.099411 914.095276,205.319458 913.830200,212.484055 
	C913.361938,225.144196 912.995483,237.993179 910.512817,250.346405 
	C907.474792,265.462860 902.987305,280.390015 897.883972,294.963928 
	C891.312500,313.730408 881.075073,330.708435 868.355530,345.992706 
	C860.901794,354.949432 852.999756,363.609711 844.629944,371.711761 
	C825.821167,389.918671 803.736633,403.164001 779.544739,413.005829 
	C764.503601,419.124908 748.935364,423.820801 732.903625,425.677948 
	C717.007568,427.519409 700.798157,428.606506 684.861450,427.685028 
	C661.676208,426.344452 638.935669,421.197296 617.601807,411.711731 
	C605.549438,406.352905 594.259521,399.290222 582.564270,393.112061 
	C578.114319,390.761322 577.464172,386.417847 577.110901,382.362427 
	C575.966553,369.223389 584.833069,360.000275 598.111206,360.000061 
	C613.277832,359.999817 628.461853,359.542206 643.606750,360.116058 
	C662.465088,360.830658 669.575806,343.421326 666.328003,329.922485 
	C665.516296,326.548981 663.661255,323.366425 661.948547,320.283478 
	C659.164246,315.272125 654.855469,312.932159 648.971313,312.953339 
	C619.971741,313.057770 590.969788,313.169922 561.973022,312.868958 
	C555.685791,312.803711 549.118286,311.929718 543.191650,309.919403 
	C521.392334,302.525269 513.243958,273.659424 530.135132,256.184845 
	C537.753540,248.303314 546.072754,244.370224 557.271545,244.820984 
	C574.244019,245.504120 591.272705,244.672653 608.261353,245.111816 
	C620.052185,245.416595 625.718628,236.714569 627.853821,228.469406 
	C629.943726,220.399033 628.392212,212.742432 623.377197,205.749023 
	C619.609131,200.494598 614.676941,198.044540 608.449280,198.023712 
	C589.116150,197.959091 569.781799,197.884430 550.449890,198.049271 
	C540.943970,198.130325 533.264099,194.023300 527.759705,187.036133 
	C518.431580,175.195129 515.923218,161.663696 522.083801,147.460251 
	C526.896912,136.363434 538.159546,127.030609 552.078979,127.015755 
	C596.578857,126.968254 641.084229,126.608589 685.575745,127.219559 
	C700.200195,127.420395 705.622986,118.967827 707.782288,107.393784 
	C709.616272,97.563126 704.489929,85.490463 696.232300,82.192772 
	C692.978882,80.893509 689.287964,80.112885 685.790527,80.092712 
	C657.291565,79.928352 628.786865,79.711472 600.293152,80.132759 
	C587.751526,80.318192 576.832947,64.664993 579.400330,52.781090 
	C581.494263,43.088715 588.429688,37.524082 594.954163,31.839006 
	C608.394836,20.127487 623.786194,11.487230 641.191833,6.976226 
	C647.651062,5.302175 654.289185,4.323188 660.831543,2.959161 
	C661.718018,2.774334 662.521362,2.190971 663.181641,1.396073 
	C682.020874,1.000000 701.041809,1.000000 720.531372,0.999996 
M672.831421,214.585114 
	C672.555603,218.510544 671.715881,222.495041 672.119751,226.349243 
	C672.996033,234.712509 680.128296,245.355545 691.717346,245.180069 
	C725.370300,244.670471 759.037598,244.825378 792.695312,245.144211 
	C799.549500,245.209137 804.797546,243.048569 808.503113,237.797440 
	C810.882446,234.425751 812.949707,230.365982 813.635559,226.354523 
	C815.722473,214.149292 809.068115,197.495926 791.296692,197.828400 
	C758.980469,198.432953 726.638184,198.367371 694.320862,197.791199 
	C683.692749,197.601700 675.583496,204.339798 672.831421,214.585114 
M779.005737,84.464478 
	C771.547119,78.816910 763.574524,77.080757 754.737244,81.077957 
	C744.966064,85.497589 739.217590,93.423500 739.436218,103.687141 
	C739.693970,115.789932 748.063049,128.314972 764.704285,128.028000 
	C774.459778,127.859772 783.716675,121.212791 787.068970,112.523895 
	C791.549316,100.911377 786.097229,90.121819 779.005737,84.464478 
M822.038940,313.057037 
	C803.176392,307.873322 789.850220,320.666534 789.329590,336.670776 
	C789.049988,345.265564 793.776672,352.545746 801.631958,357.250031 
	C810.422974,362.514648 819.234985,362.400574 827.437622,356.690063 
	C834.595825,351.706696 839.426819,344.545715 838.824341,335.470886 
	C838.133789,325.069427 832.587524,317.497681 822.038940,313.057037 
M838.002441,220.695190 
	C838.064819,231.530167 844.743347,241.839035 854.127869,244.922455 
	C871.163330,250.519669 888.447510,237.846863 887.070435,219.931961 
	C885.809631,203.529922 867.969727,192.488770 853.636230,199.047974 
	C844.490540,203.233124 839.731873,210.275299 838.002441,220.695190 
z"/>
<path fill="#E03838" opacity="1.000000" stroke="none" 
	d="
M460.467957,584.000000 
	C460.022766,561.514709 460.044342,539.029480 460.080475,516.544189 
	C460.080963,516.239990 460.265106,515.936035 460.564514,515.011108 
	C466.958252,515.011108 473.561920,514.919861 480.157013,515.116821 
	C481.068939,515.144104 482.200867,516.439270 482.787842,517.414307 
	C491.205994,531.397949 499.548035,545.427490 508.676636,560.734192 
	C508.676636,544.813110 508.676636,530.319153 508.676636,515.414185 
	C514.542969,515.414185 519.924988,515.414185 526.000366,515.414185 
	C526.000366,537.900024 526.000366,560.481384 526.000183,583.531372 
	C518.979065,584.000000 511.958099,584.000000 504.459747,583.635254 
	C495.647858,569.330322 487.313324,555.390076 478.978821,541.449829 
	C478.652527,541.582642 478.326263,541.715515 478.000000,541.848328 
	C478.000000,555.898865 478.000000,569.949463 478.000000,584.000000 
	C472.311951,584.000000 466.623932,584.000000 460.467957,584.000000 
z"/>
<path fill="#E03838" opacity="1.000000" stroke="none" 
	d="
M835.468689,584.000000 
	C834.718384,583.354492 834.601624,582.320740 834.130737,582.120789 
	C824.125977,577.871643 819.549255,569.523376 818.416748,559.501709 
	C817.349731,550.059570 816.950867,540.413452 820.923096,531.269104 
	C824.761414,522.433105 831.507568,517.515869 840.837036,515.538269 
	C853.259460,512.904968 865.178162,513.472046 876.480713,519.846924 
	C883.674316,523.904297 887.624146,531.474182 886.532532,539.746216 
	C881.292786,539.746216 876.014465,539.746216 870.718506,539.746216 
	C866.178650,528.546509 849.089050,524.488159 840.602356,533.151428 
	C835.290649,538.573669 834.414978,546.046692 835.309143,553.426392 
	C835.693848,556.600830 836.572327,559.895081 838.019653,562.729919 
	C844.133850,574.705750 862.688110,572.159973 868.229919,565.142273 
	C868.753113,564.479797 868.744080,563.396973 869.085510,562.123901 
	C864.399475,562.123901 860.110657,562.123901 855.411255,562.123901 
	C855.411255,557.454712 855.411255,553.070557 855.411255,548.339844 
	C865.698792,548.339844 876.075623,548.339844 886.975586,548.339844 
	C886.975586,554.401733 887.540100,560.416016 886.821716,566.273010 
	C886.056091,572.514526 882.620850,577.557007 876.814941,580.654846 
	C875.255005,581.487183 873.817444,582.549133 872.661865,583.752808 
	C860.645752,584.000000 848.291565,584.000000 835.468689,584.000000 
z"/>
<path fill="#E03838" opacity="1.000000" stroke="none" 
	d="
M88.467941,584.000000 
	C88.000000,561.207336 88.000000,538.414673 88.000000,515.049744 
	C101.478516,515.049744 114.581001,514.882996 127.673103,515.177612 
	C130.616806,515.243896 133.586288,516.764709 136.436371,517.888611 
	C144.022873,520.880188 146.685532,527.125427 146.962265,534.690063 
	C147.107986,538.673584 147.536346,542.830261 146.641129,546.626648 
	C145.205780,552.713684 141.665833,557.653625 135.355560,560.331604 
	C139.587524,568.019043 143.783905,575.641846 147.990143,583.632324 
	C141.978851,584.000000 135.957703,584.000000 129.458069,583.631836 
	C126.349831,578.581665 123.775101,573.867737 121.078163,569.224792 
	C116.334114,561.057312 115.641411,560.779053 106.000000,562.701843 
	C106.000000,569.747925 106.000000,576.873962 106.000000,584.000000 
	C100.311958,584.000000 94.623917,584.000000 88.467941,584.000000 
M123.124329,546.998535 
	C127.647217,546.690613 131.219437,541.663330 129.816254,536.877869 
	C129.006241,534.115356 128.650238,530.255432 124.571655,530.097473 
	C118.497589,529.862183 112.407646,530.036438 106.390442,530.036438 
	C106.390442,536.044617 106.390442,541.416748 106.390442,546.998474 
	C111.922165,546.998474 117.062653,546.998474 123.124329,546.998535 
z"/>
<path fill="#E03838" opacity="1.000000" stroke="none" 
	d="
M679.468628,584.000000 
	C679.000000,561.201599 679.000000,538.403198 679.000000,514.951965 
	C694.713135,515.567627 710.119812,513.317932 725.266296,517.178833 
	C735.939819,519.899536 741.487183,527.838745 742.705688,537.970032 
	C743.683472,546.099426 742.863220,554.553894 741.976746,562.770813 
	C740.897827,572.771729 735.269226,579.536987 725.330750,582.344238 
	C724.928406,582.457825 724.664795,583.062439 724.668335,583.719177 
	C709.979126,584.000000 694.958191,584.000000 679.468628,584.000000 
M726.000183,548.629028 
	C725.222473,536.809631 721.663330,531.818115 711.777100,530.195740 
	C706.808289,529.380371 701.595215,530.053528 696.277954,530.053528 
	C696.277954,543.519897 696.277954,556.533752 696.277954,569.519775 
	C717.264038,571.574158 726.106018,567.127930 726.000183,548.629028 
z"/>
<path fill="#E03838" opacity="1.000000" stroke="none" 
	d="
M1232.468628,584.000000 
	C1231.721313,583.356140 1231.613037,582.341370 1231.138428,582.123291 
	C1222.179077,578.004639 1220.713135,570.041931 1220.117676,561.231812 
	C1226.005249,561.231812 1231.616943,561.231812 1237.236816,561.231812 
	C1239.938110,570.099670 1246.851440,573.393494 1257.514038,570.706421 
	C1259.490112,570.208435 1261.978760,569.601196 1263.040039,568.164551 
	C1264.336914,566.409119 1265.004272,563.645325 1264.725952,561.473755 
	C1264.559326,560.172974 1262.148804,558.335938 1260.600708,558.178650 
	C1253.888550,557.496826 1247.120239,557.017090 1240.376831,557.067444 
	C1226.039062,557.174438 1217.651611,547.460083 1220.900757,532.407227 
	C1223.595215,519.923950 1228.551147,515.721497 1241.326782,515.063660 
	C1248.492798,514.694641 1255.744629,514.464844 1262.865234,515.143616 
	C1271.260986,515.943909 1276.913940,521.200134 1280.760742,528.346680 
	C1281.000000,531.361267 1281.000000,534.722595 1280.531982,538.541992 
	C1274.445679,539.000122 1268.827515,539.000122 1263.105835,539.000122 
	C1263.289185,533.802307 1261.547363,529.996887 1256.799561,529.188904 
	C1252.752930,528.500244 1248.416138,528.540405 1244.357422,529.191467 
	C1240.774048,529.766174 1237.647217,531.680542 1237.950317,536.422424 
	C1238.225098,540.721802 1240.612549,541.930420 1244.453735,542.041992 
	C1251.217896,542.238525 1258.033081,542.242981 1264.715088,543.151306 
	C1269.090698,543.746094 1273.313232,545.673645 1277.510132,547.254639 
	C1278.830688,547.752197 1279.845337,549.061951 1281.000000,550.000000 
	C1281.000000,558.687561 1281.000000,567.375183 1280.779297,576.188110 
	C1278.989624,577.741516 1277.469727,579.229431 1275.829712,580.570496 
	C1275.097046,581.169617 1274.013550,581.343933 1273.293091,581.952271 
	C1272.704834,582.448792 1272.419556,583.303894 1272.000000,584.000000 
	C1258.979126,584.000000 1245.958130,584.000000 1232.468628,584.000000 
z"/>
<path fill="#E03838" opacity="1.000000" stroke="none" 
	d="
M194.468658,584.000000 
	C192.457031,582.623596 191.065582,581.008911 189.343719,579.913818 
	C183.296265,576.067688 180.118927,570.132812 178.466644,563.644348 
	C176.005859,553.980957 176.274963,544.180237 178.969131,534.446228 
	C182.158890,522.921692 190.486038,517.309387 201.374619,515.160339 
	C209.581604,513.540588 217.848389,513.647766 226.207077,515.810608 
	C236.965988,518.594482 243.639191,524.837830 246.221497,535.554382 
	C249.518921,549.238708 249.797775,562.676575 240.945374,574.543335 
	C238.247726,578.159546 233.911606,580.553406 230.662949,583.753540 
	C218.979111,584.000000 206.958206,584.000000 194.468658,584.000000 
M214.267487,529.000183 
	C203.456650,527.910767 196.868607,534.004089 195.345932,541.674072 
	C194.409454,546.391296 194.431305,551.526611 195.175247,556.294373 
	C196.201630,562.872253 199.459686,568.112976 206.681686,570.085632 
	C213.537201,571.958191 219.750427,571.121948 224.980194,566.417175 
	C231.296829,560.734558 230.255951,553.087097 230.129013,545.530212 
	C229.982300,536.798279 223.516983,529.565308 214.267487,529.000183 
z"/>
<path fill="#E03838" opacity="1.000000" stroke="none" 
	d="
M1.000000,515.468628 
	C12.156096,514.999756 23.314404,514.874634 34.467003,515.072021 
	C38.023796,515.135010 41.594936,515.906250 45.108768,516.607666 
	C58.489491,519.278625 60.895153,534.770752 59.624416,544.737183 
	C59.339966,546.968079 58.869690,549.213501 58.163746,551.345886 
	C54.977402,560.970276 47.490612,564.542603 38.114655,564.946655 
	C31.654215,565.225159 25.172070,565.000061 18.000458,565.000061 
	C18.000458,571.211487 18.000458,577.137390 18.000229,583.531616 
	C12.362317,584.000000 6.724634,584.000000 1.000000,584.000000 
	C1.000000,561.312500 1.000000,538.624939 1.000000,515.468628 
M32.251614,530.000671 
	C27.642824,530.000671 23.034037,530.000671 18.353291,530.000671 
	C18.353291,536.951355 18.353291,543.327026 18.353291,550.000183 
	C23.510048,550.000183 28.316824,550.008179 33.123562,549.998291 
	C39.929401,549.984253 41.951969,547.844971 41.999897,540.636230 
	C42.051785,532.832764 39.781452,530.095764 32.251614,530.000671 
z"/>
<path fill="#E03838" opacity="1.000000" stroke="none" 
	d="
M361.468262,584.000000 
	C365.642578,572.030701 370.347748,560.085266 374.908600,548.084900 
	C378.777161,537.906067 382.404724,527.634888 386.359833,517.490784 
	C386.796387,516.371155 388.638336,515.212524 389.909149,515.114136 
	C393.876068,514.807129 397.891632,515.171570 401.869171,514.942810 
	C404.791168,514.774658 406.067444,515.750244 407.115570,518.618652 
	C414.704102,539.386230 422.542236,560.062683 430.329834,580.757263 
	C430.669464,581.659729 431.287018,582.457581 431.887543,583.652100 
	C425.978851,584.000000 419.957703,584.000000 413.751770,583.675598 
	C412.183014,579.601868 410.799072,575.852539 409.437653,572.164307 
	C400.618835,572.164307 392.052094,572.164307 383.121857,572.164307 
	C382.071564,576.146179 381.035767,580.073059 380.000000,584.000000 
	C373.978851,584.000000 367.957703,584.000000 361.468262,584.000000 
M391.079102,551.804077 
	C390.728912,553.365417 390.378693,554.926758 389.983734,556.687744 
	C394.620514,556.687744 398.954559,556.687744 403.683777,556.687744 
	C401.252502,550.446655 398.979797,544.612549 396.538605,538.346008 
	C394.698761,542.938416 393.069183,547.006042 391.079102,551.804077 
z"/>
<path fill="#E03838" opacity="1.000000" stroke="none" 
	d="
M1037.468018,584.000000 
	C1043.317993,567.067871 1049.641968,550.137939 1055.949585,533.201965 
	C1057.657593,528.616150 1059.470093,524.060486 1060.941284,519.398376 
	C1061.913086,516.318604 1063.350708,514.563904 1066.879395,514.947693 
	C1069.349243,515.216309 1071.948730,515.392212 1074.355225,514.920410 
	C1079.946899,513.824219 1082.184204,516.882080 1083.873657,521.447327 
	C1091.505493,542.069153 1099.263184,562.644470 1106.987793,583.618286 
	C1101.312012,584.000000 1095.623901,584.000000 1089.455444,583.615601 
	C1087.567627,579.478271 1086.160278,575.725403 1084.764526,572.003723 
	C1076.741211,572.003723 1069.271484,571.922729 1061.806885,572.083374 
	C1060.561646,572.110168 1058.629639,572.890381 1058.234619,573.833313 
	C1056.865845,577.100525 1056.035278,580.593140 1055.000000,584.000000 
	C1049.312012,584.000000 1043.623901,584.000000 1037.468018,584.000000 
M1072.455200,556.999329 
	C1074.535278,556.999329 1076.615479,556.999329 1079.236816,556.999329 
	C1076.692383,550.579285 1074.430054,544.870789 1071.799805,538.233948 
	C1069.216919,545.177734 1067.104126,550.857727 1064.819702,556.999329 
	C1067.574951,556.999329 1069.558350,556.999329 1072.455200,556.999329 
z"/>
<path fill="#E03838" opacity="1.000000" stroke="none" 
	d="
M555.468628,584.000000 
	C555.000000,582.667969 555.230652,581.287598 554.962891,580.011780 
	C553.169250,571.465759 557.828003,565.794006 563.234802,560.174255 
	C571.592407,551.487549 579.663757,542.524780 587.807495,533.634216 
	C588.536194,532.838684 588.906006,531.714478 589.778870,530.133667 
	C578.021179,530.133667 566.838257,530.133667 555.330811,530.133667 
	C555.330811,524.944214 555.330811,520.234497 555.330811,515.259827 
	C573.736877,515.259827 591.987305,515.259827 610.901489,515.259827 
	C610.476929,522.681824 612.729248,529.747742 605.526855,536.464294 
	C594.741638,546.522034 585.538269,558.276001 575.190491,569.835327 
	C587.237549,569.835327 598.772461,569.835327 611.000244,569.835327 
	C611.000244,574.553711 611.000244,578.811218 611.000122,583.534363 
	C592.645752,584.000000 574.291565,584.000000 555.468628,584.000000 
z"/>
<path fill="#E03838" opacity="1.000000" stroke="none" 
	d="
M983.467957,584.000000 
	C983.000000,566.213440 983.000000,548.426941 983.000000,530.067993 
	C975.927002,530.067993 969.206299,530.067993 962.250977,530.067993 
	C962.250977,524.905090 962.250977,520.310791 962.250977,515.356689 
	C981.990234,515.356689 1001.691772,515.356689 1021.697754,515.356689 
	C1021.697754,519.988831 1021.697754,524.584595 1021.697754,529.759033 
	C1015.118530,529.759033 1008.391846,529.759033 1000.998779,529.759033 
	C1000.998779,547.904846 1000.998779,565.483765 1000.999390,583.531372 
	C995.311951,584.000000 989.623962,584.000000 983.467957,584.000000 
z"/>
<path fill="#E03838" opacity="1.000000" stroke="none" 
	d="
M1135.468628,584.000000 
	C1135.000000,561.225159 1135.000000,538.450317 1135.000000,515.338135 
	C1141.029785,515.338135 1146.737549,515.338135 1152.827393,515.338135 
	C1152.827393,533.367310 1152.827393,551.280579 1152.827393,569.754517 
	C1165.894165,569.754517 1178.601562,569.754517 1191.999390,569.754517 
	C1191.999390,574.556946 1191.999390,578.812866 1191.999756,583.534363 
	C1173.312378,584.000000 1154.624878,584.000000 1135.468628,584.000000 
z"/>
<path fill="#E03838" opacity="1.000000" stroke="none" 
	d="
M276.468658,584.000000 
	C276.000000,561.214050 276.000000,538.428040 276.000000,515.320923 
	C281.989136,515.320923 287.704163,515.320923 293.806824,515.320923 
	C293.806824,533.343994 293.806824,551.262512 293.806824,569.746094 
	C306.884888,569.746094 319.595764,569.746094 333.000305,569.746094 
	C333.000305,574.554504 333.000305,578.811646 333.000153,583.534363 
	C314.312439,584.000000 295.624878,584.000000 276.468658,584.000000 
z"/>
<path fill="#E03838" opacity="1.000000" stroke="none" 
	d="
M772.467590,584.000000 
	C772.000000,561.240479 772.000000,538.480957 772.000000,515.360901 
	C777.650391,515.360901 783.023560,515.360901 788.999756,515.360901 
	C788.999756,537.958679 788.999756,560.510681 788.999878,583.531372 
	C783.645081,584.000000 778.290100,584.000000 772.467590,584.000000 
z"/>
<path fill="#E03838" opacity="1.000000" stroke="none" 
	d="
M916.467590,584.000000 
	C916.000000,561.240417 916.000000,538.480896 916.000000,515.360840 
	C921.650085,515.360840 927.023376,515.360840 933.000000,515.360840 
	C933.000000,537.958618 933.000000,560.510681 933.000000,583.531372 
	C927.645081,584.000000 922.290100,584.000000 916.467590,584.000000 
z"/>
<path fill="#000000" opacity="1.000000" stroke="none" 
	d="
M478.468658,584.000000 
	C478.000000,569.949463 478.000000,555.898865 478.000000,541.848328 
	C478.326263,541.715515 478.652527,541.582642 478.978821,541.449829 
	C487.313324,555.390076 495.647858,569.330322 503.991180,583.635254 
	C495.645782,584.000000 487.291534,584.000000 478.468658,584.000000 
z"/>
<path fill="#000000" opacity="1.000000" stroke="none" 
	d="
M1281.000000,549.541931 
	C1279.845337,549.061951 1278.830688,547.752197 1277.510132,547.254639 
	C1273.313232,545.673645 1269.090698,543.746094 1264.715088,543.151306 
	C1258.033081,542.242981 1251.217896,542.238525 1244.453735,542.041992 
	C1240.612549,541.930420 1238.225098,540.721802 1237.950317,536.422424 
	C1237.647217,531.680542 1240.774048,529.766174 1244.357422,529.191467 
	C1248.416138,528.540405 1252.752930,528.500244 1256.799561,529.188904 
	C1261.547363,529.996887 1263.289185,533.802307 1263.105835,539.000122 
	C1268.827515,539.000122 1274.445679,539.000122 1280.531982,539.000061 
	C1281.000000,542.361267 1281.000000,545.722595 1281.000000,549.541931 
z"/>
<path fill="#000000" opacity="1.000000" stroke="none" 
	d="
M106.468620,584.000000 
	C106.000000,576.873962 106.000000,569.747925 106.000000,562.701843 
	C115.641411,560.779053 116.334114,561.057312 121.078163,569.224792 
	C123.775101,573.867737 126.349831,578.581665 128.989792,583.631836 
	C121.645744,584.000000 114.291496,584.000000 106.468620,584.000000 
z"/>
<path fill="#000000" opacity="1.000000" stroke="none" 
	d="
M1055.468628,584.000000 
	C1056.035278,580.593140 1056.865845,577.100525 1058.234619,573.833313 
	C1058.629639,572.890381 1060.561646,572.110168 1061.806885,572.083374 
	C1069.271484,571.922729 1076.741211,572.003723 1084.764526,572.003723 
	C1086.160278,575.725403 1087.567627,579.478271 1088.987549,583.615601 
	C1077.979126,584.000000 1066.958130,584.000000 1055.468628,584.000000 
z"/>
<path fill="#000000" opacity="1.000000" stroke="none" 
	d="
M380.468628,584.000000 
	C381.035767,580.073059 382.071564,576.146179 383.121857,572.164307 
	C392.052094,572.164307 400.618835,572.164307 409.437653,572.164307 
	C410.799072,575.852539 412.183014,579.601868 413.283508,583.675598 
	C402.312439,584.000000 391.624878,584.000000 380.468628,584.000000 
z"/>
<path fill="#000000" opacity="1.000000" stroke="none" 
	d="
M1272.490967,584.000000 
	C1272.419556,583.303894 1272.704834,582.448792 1273.293091,581.952271 
	C1274.013550,581.343933 1275.097046,581.169617 1275.829712,580.570496 
	C1277.469727,579.229431 1278.989624,577.741516 1280.779297,576.656738 
	C1281.000000,579.260742 1281.000000,581.521545 1281.000000,584.000000 
	C1278.329346,584.000000 1275.655640,584.000000 1272.490967,584.000000 
z"/>
<path fill="#E03838" opacity="1.000000" stroke="none" 
	d="
M430.648865,236.193634 
	C425.940521,225.381638 426.066895,215.100052 431.978851,205.128738 
	C434.936951,200.139435 439.491913,198.010422 445.146698,198.005325 
	C461.945892,197.990204 478.745117,197.999390 495.544312,197.999664 
	C505.245239,197.999817 509.934570,201.595703 513.100159,211.159622 
	C516.365540,221.025101 515.500793,230.402542 509.917236,239.183670 
	C507.390564,243.157333 503.916962,245.186417 498.778992,245.106613 
	C480.986084,244.830276 463.183167,244.808502 445.390656,245.096436 
	C438.474945,245.208344 433.663940,242.845047 430.648865,236.193634 
z"/>
<path fill="#E03838" opacity="1.000000" stroke="none" 
	d="
M534.989441,316.000305 
	C537.983765,316.000336 540.480530,315.999542 542.977234,316.000488 
	C552.981445,316.004303 557.875122,319.721008 561.133972,329.296295 
	C564.078674,337.948273 563.560425,346.406799 559.695984,354.503082 
	C557.080505,359.982635 552.994873,363.277100 546.083191,363.131042 
	C527.781982,362.744385 509.466156,362.894287 491.158844,363.086731 
	C487.377167,363.126465 484.276978,362.068939 481.993835,359.399872 
	C476.658386,353.162445 474.643066,345.705780 475.780273,337.660004 
	C476.409088,333.211029 477.577240,328.720032 479.285004,324.570099 
	C481.715240,318.664520 486.732239,316.031494 493.046143,316.013214 
	C506.861267,315.973175 520.676575,316.000488 534.989441,316.000305 
z"/>
<path fill="#E03838" opacity="1.000000" stroke="none" 
	d="
M529.802124,79.291412 
	C536.297058,90.683479 535.833496,105.397209 528.213501,114.103752 
	C526.051208,116.574272 522.056763,118.704865 518.847229,118.785439 
	C501.033844,119.232651 483.203369,118.999878 465.378754,118.999847 
	C456.466888,118.999840 450.336334,114.699028 448.150116,106.047890 
	C445.558594,95.792969 446.028564,85.618965 453.124390,77.179321 
	C455.338379,74.545998 459.616577,72.317696 463.010712,72.228874 
	C481.322571,71.749680 499.654327,71.907845 517.977356,72.062775 
	C522.980774,72.105080 527.060181,74.410957 529.802124,79.291412 
z"/>
<path fill="#E03838" opacity="1.000000" stroke="none" 
	d="
M413.023346,234.861481 
	C405.288849,246.407150 391.811340,247.333344 383.142761,242.912506 
	C373.170990,237.827072 368.322418,230.105057 370.183929,218.148422 
	C371.713654,208.322968 376.332733,202.107269 387.443665,199.048691 
	C396.649963,196.514404 404.779755,198.932602 410.884796,205.983963 
	C418.423706,214.691406 419.143066,224.463348 413.023346,234.861481 
z"/>
<path fill="#E03838" opacity="1.000000" stroke="none" 
	d="
M459.803986,325.307251 
	C466.112030,333.337433 466.842987,342.074188 462.570618,350.444458 
	C458.606354,358.211182 451.991974,362.905426 442.419373,363.140076 
	C431.774139,363.401001 424.397034,358.920929 420.001434,349.675781 
	C415.523682,340.257690 417.455902,331.141541 424.110748,323.614838 
	C431.879578,314.828156 446.619354,313.388306 456.355743,321.883057 
	C457.482330,322.865997 458.490082,323.985077 459.803986,325.307251 
z"/>
<path fill="#E03838" opacity="1.000000" stroke="none" 
	d="
M402.914337,117.425018 
	C386.928009,109.982849 384.992310,88.949966 397.209198,78.187195 
	C403.687073,72.480385 414.054352,70.476219 422.788696,74.388100 
	C430.616425,77.893936 436.143982,86.546394 436.199463,94.459259 
	C436.276062,105.384140 431.216309,114.935516 420.124481,118.067421 
	C414.939148,119.531555 408.881622,117.906891 402.914337,117.425018 
z"/>
<path fill="#000000" opacity="1.000000" stroke="none" 
	d="
M672.906006,214.168884 
	C675.583496,204.339798 683.692749,197.601700 694.320862,197.791199 
	C726.638184,198.367371 758.980469,198.432953 791.296692,197.828400 
	C809.068115,197.495926 815.722473,214.149292 813.635559,226.354523 
	C812.949707,230.365982 810.882446,234.425751 808.503113,237.797440 
	C804.797546,243.048569 799.549500,245.209137 792.695312,245.144211 
	C759.037598,244.825378 725.370300,244.670471 691.717346,245.180069 
	C680.128296,245.355545 672.996033,234.712509 672.119751,226.349243 
	C671.715881,222.495041 672.555603,218.510544 672.906006,214.168884 
z"/>
<path fill="#000000" opacity="1.000000" stroke="none" 
	d="
M779.268921,84.724884 
	C786.097229,90.121819 791.549316,100.911377 787.068970,112.523895 
	C783.716675,121.212791 774.459778,127.859772 764.704285,128.028000 
	C748.063049,128.314972 739.693970,115.789932 739.436218,103.687141 
	C739.217590,93.423500 744.966064,85.497589 754.737244,81.077957 
	C763.574524,77.080757 771.547119,78.816910 779.268921,84.724884 
z"/>
<path fill="#000000" opacity="1.000000" stroke="none" 
	d="
M822.420166,313.196167 
	C832.587524,317.497681 838.133789,325.069427 838.824341,335.470886 
	C839.426819,344.545715 834.595825,351.706696 827.437622,356.690063 
	C819.234985,362.400574 810.422974,362.514648 801.631958,357.250031 
	C793.776672,352.545746 789.049988,345.265564 789.329590,336.670776 
	C789.850220,320.666534 803.176392,307.873322 822.420166,313.196167 
z"/>
<path fill="#000000" opacity="1.000000" stroke="none" 
	d="
M838.008057,220.259232 
	C839.731873,210.275299 844.490540,203.233124 853.636230,199.047974 
	C867.969727,192.488770 885.809631,203.529922 887.070435,219.931961 
	C888.447510,237.846863 871.163330,250.519669 854.127869,244.922455 
	C844.743347,241.839035 838.064819,231.530167 838.008057,220.259232 
z"/>
<path fill="#000000" opacity="1.000000" stroke="none" 
	d="
M122.663734,546.998535 
	C117.062653,546.998474 111.922165,546.998474 106.390442,546.998474 
	C106.390442,541.416748 106.390442,536.044617 106.390442,530.036438 
	C112.407646,530.036438 118.497589,529.862183 124.571655,530.097473 
	C128.650238,530.255432 129.006241,534.115356 129.816254,536.877869 
	C131.219437,541.663330 127.647217,546.690613 122.663734,546.998535 
z"/>
<path fill="#000000" opacity="1.000000" stroke="none" 
	d="
M726.000122,549.085327 
	C726.106018,567.127930 717.264038,571.574158 696.277954,569.519775 
	C696.277954,556.533752 696.277954,543.519897 696.277954,530.053528 
	C701.595215,530.053528 706.808289,529.380371 711.777100,530.195740 
	C721.663330,531.818115 725.222473,536.809631 726.000122,549.085327 
z"/>
<path fill="#000000" opacity="1.000000" stroke="none" 
	d="
M214.707611,529.000854 
	C223.516983,529.565308 229.982300,536.798279 230.129013,545.530212 
	C230.255951,553.087097 231.296829,560.734558 224.980194,566.417175 
	C219.750427,571.121948 213.537201,571.958191 206.681686,570.085632 
	C199.459686,568.112976 196.201630,562.872253 195.175247,556.294373 
	C194.431305,551.526611 194.409454,546.391296 195.345932,541.674072 
	C196.868607,534.004089 203.456650,527.910767 214.707611,529.000854 
z"/>
<path fill="#000000" opacity="1.000000" stroke="none" 
	d="
M32.714592,530.000610 
	C39.781452,530.095764 42.051785,532.832764 41.999897,540.636230 
	C41.951969,547.844971 39.929401,549.984253 33.123562,549.998291 
	C28.316824,550.008179 23.510048,550.000183 18.353291,550.000183 
	C18.353291,543.327026 18.353291,536.951355 18.353291,530.000671 
	C23.034037,530.000671 27.642824,530.000671 32.714592,530.000610 
z"/>
<path fill="#000000" opacity="1.000000" stroke="none" 
	d="
M391.259338,551.438843 
	C393.069183,547.006042 394.698761,542.938416 396.538605,538.346008 
	C398.979797,544.612549 401.252502,550.446655 403.683777,556.687744 
	C398.954559,556.687744 394.620514,556.687744 389.983734,556.687744 
	C390.378693,554.926758 390.728912,553.365417 391.259338,551.438843 
z"/>
<path fill="#000000" opacity="1.000000" stroke="none" 
	d="
M1071.998535,556.999329 
	C1069.558350,556.999329 1067.574951,556.999329 1064.819702,556.999329 
	C1067.104126,550.857727 1069.216919,545.177734 1071.799805,538.233948 
	C1074.430054,544.870789 1076.692383,550.579285 1079.236816,556.999329 
	C1076.615479,556.999329 1074.535278,556.999329 1071.998535,556.999329 
z"/>
</svg>